<svg id="Layer_5" enable-background="new 0 0 64 64" height="512" viewBox="0 0 64 64" width="512" xmlns="http://www.w3.org/2000/svg" xmlns:xlink="http://www.w3.org/1999/xlink"><linearGradient id="SVGID_1_" gradientUnits="userSpaceOnUse" x1="32" x2="32" y1="63" y2="1"><stop offset="0" stop-color="#9f2fff"/><stop offset="1" stop-color="#0bb1d3"/></linearGradient><path d="m58 17h-3v-11c0-2.757-2.243-5-5-5h-36c-2.757 0-5 2.243-5 5v11h-3c-2.757 0-5 2.243-5 5v28c0 2.757 2.243 5 5 5h16v2c-2.206 0-4 1.794-4 4 0 1.103.897 2 2 2h24c1.103 0 2-.897 2-2 0-2.206-1.794-4-4-4v-2h16c2.757 0 5-2.243 5-5v-28c0-2.757-2.243-5-5-5zm0 2c1.654 0 3 1.346 3 3v25h-6v-28zm-5 28h-11.586l-2-2h-14.828l-2 2h-11.586v-36h42zm-39-44h36c1.654 0 3 1.346 3 3v3h-42v-3c0-1.654 1.346-3 3-3zm-8 16h3v28h-6v-25c0-1.654 1.346-3 3-3zm38.001 42h-24.001c0-1.103.897-2 2-2h20c1.103 0 2 .897 2.001 2zm-4.001-4h-16v-2h16zm18-4h-52c-1.654 0-3-1.346-3-3v-1h20.414l2-2h13.172l2 2h20.414v1c0 1.654-1.346 3-3 3zm-23-4h2v2h-2zm-4 0h2v2h-2zm-4 0h2v2h-2zm-12-42h-2v-2h2zm4 0h-2v-2h2zm4 0h-2v-2h2zm0 26c5.514 0 10-4.486 10-10s-4.486-10-10-10-10 4.486-10 10 4.486 10 10 10zm-4.792-3.609c1.125-1.492 2.895-2.391 4.792-2.391s3.667.9 4.792 2.391c-1.338 1.005-2.994 1.609-4.792 1.609s-3.454-.604-4.792-1.609zm1.792-7.391c0-1.654 1.346-3 3-3s3 1.346 3 3-1.346 3-3 3-3-1.346-3-3zm3-7c4.411 0 8 3.589 8 8 0 1.893-.664 3.633-1.768 5.004-.792-.986-1.796-1.763-2.931-2.278 1.034-.917 1.699-2.239 1.699-3.726 0-2.757-2.243-5-5-5s-5 2.243-5 5c0 1.487.665 2.809 1.699 3.726-1.135.516-2.139 1.293-2.931 2.278-1.104-1.371-1.768-3.111-1.768-5.004 0-4.411 3.589-8 8-8zm14 4h12c1.103 0 2-.897 2-2v-2c0-1.103-.897-2-2-2h-12c-1.103 0-2 .897-2 2v2c0 1.103.897 2 2 2zm0-4h12l.001 2h-12.001zm14 8h-16v-2h16zm0 4h-16v-2h16zm0 4h-16v-2h16zm-36 10h4c1.103 0 2-.897 2-2v-2c0-1.103-.897-2-2-2h-4c-1.103 0-2 .897-2 2v2c0 1.103.897 2 2 2zm0-4h4l.001 2h-4.001zm14-2h-4c-1.103 0-2 .897-2 2v2c0 1.103.897 2 2 2h4c1.103 0 2-.897 2-2v-2c0-1.103-.897-2-2-2zm-4 4v-2h4l.001 2zm8 0c0 1.103.897 2 2 2h4c1.103 0 2-.897 2-2v-2c0-1.103-.897-2-2-2h-4c-1.103 0-2 .897-2 2zm2-2h4l.001 2h-4.001zm14-2h-4c-1.103 0-2 .897-2 2v2c0 1.103.897 2 2 2h4c1.103 0 2-.897 2-2v-2c0-1.103-.897-2-2-2zm-4 4v-2h4l.001 2zm-38-16h-2v-2h2zm0 4h-2v-2h2zm0 4h-2v-2h2zm50 14v-2h2v2zm2-4h-2v-2h2zm0-4h-2v-2h2z" fill="url(#SVGID_1_)"/></svg>