<svg version="1" xmlns="http://www.w3.org/2000/svg" width="682.667" height="682.667" viewBox="0 0 512.000000 512.000000"><path d="M263 1.5c-28 7.4-41.2 37.5-27.9 63.6 6 11.9 20.1 21.3 33.9 22.6 3 .3 5.7.7 5.9.9.7.6-8.8 12-14.5 17.5-13.1 12.3-29.6 20.8-46.8 24.1-3.6.7-6.1 1.5-5.6 1.8.4.3-42.1.5-94.6.5-52.5 0-95.4.2-95.4.5 0 1.4 9.7 24 11.5 27 5 8 12.6 13.3 22 15.5 2.8.6 11 1.1 18.3 1.1 9.4-.1 12.8.2 11.6.9-7 4.1-10.6 9.5-10.6 15.9.1 7.6 3.4 13.1 10.2 16.6 2.7 1.4 5.9 1.8 14 1.8h10.5l.3 26.6.2 26.6-17.7.2-17.7.3v17.3l-.1 17.2 4 .1H106l-.2 70.6-.3 70.6-6.5.2c-7 .2-11.1 1.8-14.8 5.8-4.4 4.7-4.9 8-4.8 37l.1 27.2 44.1.3 44.2.2-.2-29.2c-.1-29.2-.1-29.3-2.5-32.9-1.4-1.9-4-4.6-5.8-5.8-3.2-2-4.7-2.3-17-3-.9-.1-1.1-17-1-70.3l.2-70.3 43.8-.2 43.7-.1v4.1c.1 2.3.2 8.2.3 13.2l.2 9-6.8.2c-7.9.2-11.5 1.9-16.1 7.6l-3.1 3.9-.3 30.6c-.4 35.1-.1 36.8 7.1 42.4l4.1 3.3H238c26.5 0 27.5-.2 32.8-7.9l2.7-3.9v-31.6c0-35.1-.1-35.4-6.8-40.5-3.4-2.6-10.5-4.6-14.3-4-5.1.8-5.3.2-5.1-13.6l.2-12.8H335l.1 8.7c.6 51.9.2 132.1-.6 132.2-.5 0-3.2.2-6 .3-9.2.4-14.6 3.5-17.6 10-1.7 3.7-1.9 7-1.9 32.3V512h88l.1-4.3c.4-19.4-.1-52.7-.9-54.8-2.9-7.5-11.5-12.3-20.9-11.5l-4.3.3v-4.6c-.1-6.7-.1-98.5-.1-119.3l.1-17.7h33.8c.9-.1 1.2-4.3 1.2-17.6V265h-35l-.1-3.8c-.2-6.5.2-48.6.4-48.8.1-.2 4.7-.4 10.2-.5 13.7-.2 18.8-2.4 22.4-9.9 2.5-5 2.6-11.2.2-15.9-2-3.9-6.8-8.1-9.2-8.1-.7 0-1-.3-.6-.6.3-.4 7.3-.8 15.4-.9 18.7-.4 24-2.1 32.4-10.4 5.5-5.6 7.7-9.7 14.5-27.8l2.3-6.1h-4.2c-6.3 0-13.3-1.2-22.2-3.8-26.4-7.5-48-25.3-59.3-48.8-7.5-15.3-10.1-25.6-11.1-42.8-.1-1.6-2.1-1.8-22.8-2l-22.6-.3-1.6-4.6c-4.7-13.3-16.3-24.5-29.1-28-6.1-1.6-17.6-1.8-23-.4zm-52.4 210.9c.8.3 1.2 8.1 1.2 26.5l.1 26.1h-70.8l.2-26.5.2-26.4 8.5-.3c11.3-.4 59.2.1 60.6.6zm124-.1c.6.6 1.2 49.9.6 51.4-.3 1-8.3 1.3-35.3 1.3H265v-52.9l4.3-.3c6.1-.4 64.8 0 65.3.5zM442.5 1.2C437 3.2 432 7 429 11.3c-4.4 6.3-4.9 6.7-7.2 6.7-3.6 0-10.2 3.8-12.5 7.2-3.1 4.7-3.9 11.5-1.8 16.3 2.1 5.2 4.2 7.4 9 9.6 3.6 1.7 7 1.9 33 1.9 16.6 0 30.6-.4 32.7-1 2.1-.6 5.1-2.7 7.1-5 9.4-10.4 3.7-27.2-9.8-28.8-3.6-.4-4.6-.9-5.5-3.2-1.5-3.7-7.6-9.8-12.1-12.1-4.6-2.3-15.3-3.2-19.4-1.7z"/><path d="M153.5 36c-7.7 1.8-14.4 7.1-18.1 14.1l-1.5 2.9h-11.2c-15.4.1-20.5 2.4-24.2 11.4-3.4 8.2.5 17.8 9 22 3.6 1.8 6.3 1.9 34.1 1.9 34.8 0 35.5-.2 40.8-8.7 2.7-4.3 2.9-5.4 2.9-14.1-.1-7.8-.5-10.3-2.6-14.8-4.9-10.7-18.1-17.4-29.2-14.7z"/></svg>