<?xml version="1.0" standalone="no"?>
<!DOCTYPE svg PUBLIC "-//W3C//DTD SVG 20010904//EN"
 "http://www.w3.org/TR/2001/REC-SVG-20010904/DTD/svg10.dtd">
<svg version="1.0" xmlns="http://www.w3.org/2000/svg"
 width="140.000000pt" height="140.000000pt" viewBox="0 0 140.000000 140.000000"
 preserveAspectRatio="xMidYMid meet">
<metadata>
Created by potrace 1.11, written by Peter Selinger 2001-2013
</metadata>
<g transform="translate(0.000000,140.000000) scale(0.100000,-0.100000)"
fill="#000000" stroke="none">
<path d="M1137 1359 c-71 -17 -142 -80 -174 -156 -30 -71 -13 -205 30 -241 10
-8 24 -9 52 -1 133 37 216 171 188 304 -11 51 -38 106 -52 104 -3 -1 -23 -5
-44 -10z"/>
<path d="M731 1261 c-16 -11 -17 -78 0 -129 12 -38 51 -97 79 -120 24 -20 88
-52 104 -52 13 0 13 4 1 34 -26 61 -26 162 0 229 6 13 -1 21 -29 32 -39 16
-133 20 -155 6z"/>
<path d="M370 907 c-157 -22 -298 -147 -348 -307 -68 -218 48 -455 266 -542
55 -22 71 -23 380 -26 212 -2 341 0 375 8 317 68 459 451 259 700 -70 86 -120
121 -223 155 -46 16 -95 18 -355 19 -165 1 -325 -2 -354 -7z m748 -87 c165
-88 243 -249 206 -426 -25 -125 -94 -213 -211 -271 -71 -35 -82 -38 -167 -37
-73 0 -102 5 -146 24 -30 13 -57 27 -60 30 -3 3 -17 13 -32 23 -15 9 -46 40
-67 67 -168 213 -72 532 185 614 34 11 77 15 140 12 79 -2 98 -7 152 -36z"/>
</g>
</svg>
